<?xml version="1.0" standalone="no"?>
<!DOCTYPE svg PUBLIC "-//W3C//DTD SVG 20010904//EN"
 "http://www.w3.org/TR/2001/REC-SVG-20010904/DTD/svg10.dtd">
<svg version="1.0" xmlns="http://www.w3.org/2000/svg"
 width="512.000000pt" height="512.000000pt" viewBox="0 0 512.000000 512.000000"
 preserveAspectRatio="xMidYMid meet">

<g transform="translate(0.000000,512.000000) scale(0.100000,-0.100000)"
fill="#000000" stroke="none">
<path d="M1962 5101 c-69 -24 -120 -65 -157 -129 l-30 -51 -770 -3 -770 -3
-49 -24 c-66 -33 -122 -91 -155 -160 -35 -74 -37 -192 -4 -262 41 -90 124
-162 213 -185 l45 -11 3 -1577 2 -1576 -105 0 c-119 0 -155 -12 -174 -58 -9
-20 -11 -104 -9 -286 l3 -258 28 -24 c21 -18 40 -24 77 -24 l49 0 3 -206 3
-206 33 -29 32 -29 490 0 490 0 32 29 33 29 3 206 3 206 436 0 435 0 29 29
c40 40 40 89 0 133 l-29 33 -976 3 -976 2 0 125 0 125 2360 0 2360 0 0 -125 0
-125 -976 -2 -976 -3 -29 -33 c-40 -44 -40 -93 0 -133 l29 -29 436 0 435 0 3
-206 3 -206 33 -29 32 -29 490 0 490 0 32 29 33 29 3 206 3 206 49 0 c37 0 56
6 77 24 l28 24 3 258 c2 182 0 266 -9 286 -19 46 -55 58 -174 58 l-105 0 2
1576 3 1577 45 11 c89 23 172 95 213 185 33 70 31 188 -4 262 -33 69 -89 127
-155 160 l-49 24 -770 3 -770 3 -30 52 c-16 28 -49 66 -73 84 -82 62 -88 63
-686 63 -498 -1 -545 -2 -594 -19z m1147 -196 c49 -25 52 -46 49 -350 l-3
-280 -597 -3 -598 -2 0 287 c1 308 3 322 51 349 37 21 1058 20 1098 -1z
m-1349 -310 l0 -125 -725 0 c-609 0 -731 2 -760 14 -82 35 -99 141 -31 203
l36 33 740 0 740 0 0 -125z m3116 92 c68 -62 51 -168 -31 -203 -29 -12 -151
-14 -760 -14 l-725 0 0 125 0 125 740 0 740 0 36 -33z m-4156 -1992 l0 -1575
-115 0 -115 0 0 1575 0 1575 115 0 115 0 0 -1575z m1040 1523 c0 -40 23 -123
96 -341 115 -345 101 -327 261 -327 l101 0 4 -132 c3 -110 7 -141 25 -180 29
-64 103 -140 162 -168 l48 -23 6 -151 c11 -278 61 -462 167 -617 l40 -58 -461
-3 -461 -3 -29 -33 -29 -32 0 -515 0 -515 -385 0 -385 0 0 1575 0 1575 420 0
420 0 0 -52z m2440 -1523 l0 -1575 -385 0 -385 0 0 515 0 515 -29 32 -29 33
-174 5 -174 5 -76 38 c-87 43 -144 99 -189 189 -62 123 -99 312 -99 506 l0 89
50 23 c61 29 133 103 163 168 18 39 22 70 25 180 l4 132 101 0 c160 0 146 -18
261 327 73 218 96 301 96 341 l0 52 420 0 420 0 0 -1575z m430 0 l0 -1575
-115 0 -115 0 0 1575 0 1575 115 0 115 0 0 -1575z m-1564 1218 l-53 -158 -453
0 -453 0 -53 158 -52 157 558 0 558 0 -52 -157z m-366 -470 c0 -118 -13 -155
-66 -189 -35 -23 -113 -23 -148 0 -53 34 -66 71 -66 189 l0 107 140 0 140 0 0
-107z m88 -1875 l2 -448 -450 0 -450 0 0 450 0 450 448 -2 447 -3 3 -447z
m442 2 l0 -450 -120 0 -120 0 0 450 0 450 120 0 120 0 0 -450z m-2152 -1237
l3 -133 -361 0 -360 0 0 135 0 135 358 -2 357 -3 3 -132z m3682 2 l0 -135
-360 0 -360 0 0 128 c0 71 3 132 7 135 3 4 165 7 360 7 l353 0 0 -135z"/>
<path d="M2524 661 c-12 -5 -31 -22 -44 -38 -17 -22 -21 -36 -17 -68 16 -115
178 -115 194 1 4 35 1 46 -23 73 -31 33 -76 46 -110 32z"/>
</g>
</svg>
