<svg xmlns="http://www.w3.org/2000/svg" version="1.0" preserveAspectRatio="xMidYMid meet" viewBox="384 159.85 580 579.25">
<metadata>
Created by potrace 1.10, written by Peter Selinger 2001-2011
</metadata>
<g transform="translate(0.000000,897.000000) scale(0.100000,-0.100000)" fill="#000000" stroke="none">
<path d="M4302 7354 c-22 -15 -22 -18 -22 -258 0 -175 -3 -245 -12 -254 -8 -8 -61 -12 -173 -12 l-162 0 -36 -32 c-75 -67 -71 -169 8 -233 l37 -30 164 -3 c159 -3 164 -4 169 -25 3 -12 4 -962 3 -2112 l-3 -2090 -200 -3 c-194 -2 -201 -3 -217 -25 -15 -19 -18 -48 -18 -223 0 -182 2 -202 18 -217 16 -15 49 -17 259 -17 181 0 243 -3 250 -12 6 -7 18 -37 28 -66 18 -57 61 -108 117 -138 28 -16 63 -19 237 -22 174 -3 211 -1 250 14 79 29 127 86 157 189 l9 30 1573 3 1572 2 10 -22 c5 -13 11 -34 14 -48 11 -54 58 -108 121 -140 l62 -31 209 3 c179 3 214 6 242 22 56 30 99 81 117 138 10 29 22 59 28 66 7 9 70 12 252 12 222 0 243 2 258 18 15 16 17 46 17 218 -1 162 -3 203 -16 219 -14 19 -30 20 -217 25 l-202 5 0 2110 0 2110 167 5 166 5 39 31 c78 64 81 165 6 232 l-36 32 -162 0 c-112 0 -165 4 -173 12 -9 9 -12 79 -12 254 0 240 0 243 -22 258 -31 22 -404 24 -434 2 -18 -13 -19 -32 -24 -268 l-5 -253 -94 -3 c-60 -2 -98 1 -107 9 -10 8 -14 34 -14 81 0 101 -16 154 -56 184 -67 52 -176 25 -203 -50 -6 -16 -11 -68 -11 -115 0 -54 -5 -92 -12 -99 -9 -9 -109 -12 -389 -12 -334 0 -378 -2 -383 -16 -12 -31 -7 -249 7 -267 11 -15 49 -17 392 -19 l380 -3 5 -105 c6 -119 18 -147 77 -175 43 -21 91 -15 134 16 41 29 51 58 58 169 l6 95 105 0 105 0 0 -2110 0 -2110 -1975 0 -1975 0 0 2110 0 2110 105 0 105 0 6 -95 c7 -111 17 -140 58 -169 43 -31 91 -37 134 -16 59 28 71 56 77 175 l5 105 380 3 c343 2 381 4 393 19 16 23 17 254 0 271 -9 9 -108 12 -383 12 -275 0 -374 3 -383 12 -7 7 -12 45 -12 99 0 47 -5 100 -11 117 -24 70 -140 97 -204 48 -39 -30 -55 -81 -55 -178 0 -53 -4 -79 -14 -87 -9 -8 -47 -11 -107 -9 l-94 3 -5 253 c-5 236 -6 255 -24 268 -30 22 -403 20 -434 -2z"/>
<path d="M6350 7108 c-19 -21 -20 -33 -20 -463 0 -337 3 -445 13 -458 8 -11 30 -17 67 -19 59 -3 54 3 79 -88 5 -20 14 -26 41 -28 84 -6 78 8 81 -181 l4 -170 34 -35 c42 -44 94 -55 145 -31 65 31 71 50 74 238 4 187 -2 173 82 179 28 3 36 8 42 31 25 89 19 82 78 85 37 2 59 8 68 19 9 13 12 120 12 455 0 387 -2 442 -16 463 l-16 25 -374 0 c-371 0 -373 0 -394 -22z"/>
<path d="M6695 5367 c-90 -35 -105 -65 -105 -214 0 -141 -13 -186 -63 -224 -31 -23 -40 -24 -247 -30 -188 -5 -223 -8 -280 -28 -192 -67 -325 -231 -346 -427 -6 -63 10 -202 26 -218 6 -6 10 -17 10 -26 0 -22 65 -115 115 -165 51 -52 113 -89 201 -121 l67 -24 746 0 746 0 52 -24 c72 -34 107 -89 108 -171 l0 -60 -1112 -5 -1113 -5 -27 -28 -28 -27 0 -426 0 -426 33 -29 32 -29 1230 0 1230 0 32 29 33 29 0 539 c-1 512 -2 540 -20 588 -68 170 -170 270 -334 326 -51 18 -97 19 -800 19 -729 0 -747 1 -791 21 -25 11 -56 30 -68 42 -59 54 -79 153 -46 223 18 38 73 90 113 106 14 6 125 14 251 17 l225 6 66 33 c85 42 143 92 186 160 62 96 73 146 73 320 0 179 -9 205 -84 241 -47 23 -67 25 -111 8z"/>
</g>
</svg>